#!OML:ASF H:\Terrain\Patient Classification 1\Animal1\Tuesday\Animal1.ASF
:FULLY-SPECIFIED
:DEGREES
1933
root 2.18593 16.4272 -13.5635 6.12281 -54.7014 4.77516
lowerback -7.16237 5.37393 -3.18301
upperback -7.96168 7.02921 -2.92884
thorax -4.30605 3.52147 -1.04249
lowerneck -5.91869 10.5731 1.45198
upperneck 22.0551 11.7058 12.7908
head 7.00767 6.81251 4.76538
rclavicle 9.95911e-014 9.14409e-015
rhumerus -39.0906 57.2773 -98.962
rradius 29.0937
rwrist -43.0888
rhand -7.86506 20.9555
rfingers 7.12502
rthumb 18.0387 -8.22801
lclavicle 9.95911e-014 9.14409e-015
lhumerus -81.2968 -29.1778 94.6957
lradius 34.6664
lwrist 12.1058
lhand 29.2139 28.2173
lfingers 7.12502
lthumb 52.9989 47.7104
rfemur -35.1569 35.3429 -6.35992
rtibia 21.7944
rfoot -52.0571 -36.5185
rtoes 49.8872
lfemur -9.73303 -34.8781 -24.5339
ltibia 12.9056
lfoot -12.105 15.3121
ltoes 17.8389
1934
root 2.15106 16.4249 -13.5462 5.83596 -54.6084 5.0559
lowerback -7.12149 5.32268 -3.25102
upperback -8.01323 6.95663 -2.96157
thorax -4.38755 3.48713 -1.04949
lowerneck -5.66267 10.6248 1.49841
upperneck 22.1078 11.786 12.7483
head 6.98084 6.84594 4.73482
rclavicle 6.80837e-014 1.82882e-014
rhumerus -39.1218 57.1082 -99.0091
rradius 28.9377
rwrist -42.7042
rhand -7.51264 20.8559
rfingers 7.12502
rthumb 18.3777 -8.29594
lclavicle 6.80837e-014 1.82882e-014
lhumerus -81.5856 -29.0319 94.8218
lradius 34.8191
lwrist 12.0567
lhand 29.244 27.9121
lfingers 7.12502
lthumb 53.026 47.3879
rfemur -35.4312 35.8215 -6.96992
rtibia 21.5647
rfoot -52.8082 -36.6199
rtoes 50.0424
lfemur -9.48107 -35.4611 -24.7963
ltibia 12.9539
lfoot -12.5342 15.63
ltoes 18.4326
1935
root 2.11416 16.424 -13.5372 6.28536 -54.4632 4.71233
lowerback -7.28704 5.32928 -3.06706
upperback -8.08592 6.96262 -2.91656
thorax -4.35533 3.48223 -1.09023
lowerneck -5.55536 10.6392 1.72896
upperneck 22.1278 11.8236 12.5117
head 7.00083 6.85906 4.62338
rclavicle 1.30204e-014 -8.34896e-015
rhumerus -38.8153 56.6574 -98.695
rradius 28.6482
rwrist -41.9961
rhand -7.19086 20.8764
rfingers 7.12502
rthumb 18.6873 -8.24602
lclavicle 1.30204e-014 -8.34896e-015
lhumerus -81.6924 -29.1932 95.092
lradius 34.863
lwrist 12.1184
lhand 29.7309 27.9282
lfingers 7.12502
lthumb 53.4648 47.1218
rfemur -36.1307 36.4883 -7.45604
rtibia 21.4461
rfoot -53.3212 -37.2698
rtoes 50.0893
lfemur -9.48055 -35.7534 -24.4451
ltibia 12.7986
lfoot -12.9025 15.6243
ltoes 19.3579
1936
root 2.07521 16.4192 -13.5344 6.39068 -54.3041 4.73884
lowerback -7.32175 5.35212 -3.14204
upperback -8.13996 6.99329 -2.94205
thorax -4.40051 3.50051 -1.07574
lowerneck -5.55266 10.5185 1.72748
upperneck 22.0445 11.6908 12.3743
head 6.99031 6.78169 4.56798
rclavicle -8.79622e-014 1.11319e-014
rhumerus -38.7469 56.3967 -98.5053
rradius 28.5775
rwrist -41.6703
rhand -7.36012 20.6821
rfingers 7.12502
rthumb 18.5244 -8.45589
lclavicle -8.79622e-014 1.11319e-014
lhumerus -81.6997 -29.4729 95.4633
lradius 34.8128
lwrist 12.1405
lhand 29.4175 28.0398
lfingers 7.12502
lthumb 53.1825 47.4159
rfemur -36.5261 36.6282 -7.81038
rtibia 21.3193
rfoot -53.654 -36.9277
rtoes 50.3463
lfemur -9.49151 -35.1684 -24.3765
ltibia 12.6772
lfoot -12.8599 14.8629
ltoes 19.2687
1937
root 2.03727 16.4153 -13.5253 6.01145 -54.0979 5.28662
lowerback -7.38126 5.29719 -3.41076
upperback -8.0813 6.93261 -3.04387
thorax -4.32625 3.47979 -1.02692
lowerneck -5.76756 10.4591 1.47806
upperneck 22.0089 11.6214 12.463
head 6.99528 6.74163 4.64067
rclavicle 4.63168e-014 1.70955e-014
rhumerus -38.7542 56.6327 -98.461
rradius 28.7264
rwrist -41.9408
rhand -7.76967 20.1123
rfingers 7.12502
rthumb 18.1304 -9.06275
lclavicle 4.63168e-014 1.70955e-014
lhumerus -81.472 -29.4345 95.4118
lradius 34.762
lwrist 11.9933
lhand 28.9689 27.7471
lfingers 7.12502
lthumb 52.7776 47.3793
rfemur -36.7376 36.6664 -8.38452
rtibia 21.184
rfoot -53.3011 -36.9695
rtoes 50.1944
lfemur -9.40259 -34.6113 -24.7359
ltibia 12.6183
lfoot -12.8346 13.9476
ltoes 19.848
1938
root 2.00299 16.4161 -13.5137 6.09693 -53.8147 5.37459
lowerback -7.62044 5.20522 -3.39948
upperback -8.02424 6.82286 -3.06896
thorax -4.12722 3.42262 -1.03317
lowerneck -6.00396 10.455 1.46848
upperneck 22.1765 11.6017 12.4238
head 7.0952 6.7364 4.65571
rclavicle 2.38542e-015 1.31198e-014
rhumerus -38.5664 56.7253 -98.2886
rradius 28.817
rwrist -42.1664
rhand -7.5745 20.0195
rfingers 7.12502
rthumb 18.3182 -9.13797
lclavicle 2.38542e-015 1.31198e-014
lhumerus -81.2292 -29.2906 95.1942
lradius 34.7756
lwrist 11.8265
lhand 29.2809 27.56
lfingers 7.12502
lthumb 53.0593 47.0148
rfemur -37.1372 36.8752 -8.81535
rtibia 21.1116
rfoot -52.6493 -38.0495
rtoes 49.0259
lfemur -9.33955 -34.5169 -24.7284
ltibia 12.4505
lfoot -12.9115 13.5716
ltoes 19.1945
